<svg xmlns="http://www.w3.org/2000/svg" viewBox="0 0 64 64" fill="none">
  <defs>
    <linearGradient id="bg" x1="0" y1="0" x2="64" y2="64" gradientUnits="userSpaceOnUse">
      <stop offset="0%" stop-color="#6366f1"/>
      <stop offset="100%" stop-color="#8b5cf6"/>
    </linearGradient>
    <linearGradient id="shield" x1="20" y1="12" x2="44" y2="56" gradientUnits="userSpaceOnUse">
      <stop offset="0%" stop-color="#ffffff" stop-opacity="0.95"/>
      <stop offset="100%" stop-color="#e0e7ff" stop-opacity="0.9"/>
    </linearGradient>
  </defs>
  <rect width="64" height="64" rx="14" fill="url(#bg)"/>
  <!-- Shield shape -->
  <path d="M32 10 L48 18 V34 C48 44 40 52 32 56 C24 52 16 44 16 34 V18 Z" fill="url(#shield)" opacity="0.9"/>
  <!-- Chat bubble inside shield -->
  <rect x="23" y="23" width="18" height="14" rx="3" fill="#6366f1"/>
  <polygon points="27,37 25,42 31,37" fill="#6366f1"/>
  <!-- Text lines in bubble -->
  <rect x="26" y="26.5" width="12" height="2" rx="1" fill="white"/>
  <rect x="26" y="30.5" width="8" height="2" rx="1" fill="white" opacity="0.7"/>
  <!-- Lock icon at bottom of shield -->
  <rect x="29" y="44" width="6" height="5" rx="1" fill="#6366f1"/>
  <path d="M30 44 V42 C30 40.5 31 39.5 32 39.5 C33 39.5 34 40.5 34 42 V44" stroke="#6366f1" stroke-width="1.5" fill="none"/>
  <circle cx="32" cy="46.5" r="0.8" fill="white"/>
</svg>
